<?xml version="1.0" encoding="UTF-8" standalone="no"?>
<svg
   width="1536"
   height="1024"
   viewBox="0 0 1536 1024"
   version="1.1"
   id="svg2"
   xmlns="http://www.w3.org/2000/svg"
   xmlns:svg="http://www.w3.org/2000/svg">
  <defs
     id="defs2" />
  <style
     id="style1">
    .main {
      font-family: &quot;Noto Serif Devanagari&quot;;
      font-weight: 900;
      font-size: 360px;
      fill: #ffffff;
      letter-spacing: 2px;
    }
    .sub {
      font-family: &quot;Noto Serif Devanagari&quot;;
      font-weight: 700;
      font-size: 150px;
      fill: #ffffff;
      letter-spacing: 1px;
    }
  </style>
  <path
     d="m 617.23976,539.8 q -33.84,0 -59.4,-29.16 -25.2,-29.16 -39.24,-84.6 l 27.36,-8.64 q 11.16,37.08 23.76,54.72 12.96,17.28 29.16,17.28 18.36,0 18.36,-19.44 0,-20.52 -20.88,-43.2 l 10.8,-18.72 h 80.64 v -23.76 h -183.24 l -23.76,-39.24 v -5.76 h 289.08 l 23.76,39.24 v 5.76 h -48.24 V 568.6 h -6.12 l -51.48,-33.12 v -81.72 h -9 q -8.64,0 -16.56,-0.36 -7.92,-0.36 -14.4,-1.08 6.84,10.8 10.44,21.24 3.6,10.44 3.6,21.24 0,21.6 -11.88,33.48 -11.52,11.52 -32.76,11.52 z m 90.55975,-195.84 q -12.24,-12.6 -23.04,-18.36 -10.8,-6.12 -26.64,-6.12 -14.04,0 -28.8,6.48 l -14.76,-40.32 q 6.48,-2.52 14.04,-3.96 7.2,-1.44 15.12,-1.44 21.24,0 36.72,10.08 15.48,9.72 30.96,29.16 l 1.8,-0.36 q -12.96,-25.92 -24.84,-36.72 -12.24,-10.8 -31.32,-10.8 -7.56,0 -14.04,1.44 -6.48,1.08 -12.6,3.6 l -14.76,-38.88 q 7.2,-2.88 15.84,-4.32 8.64,-1.8 17.64,-1.8 17.28,0 30.24,5.4 12.96,5.04 23.76,18 10.44,12.6 20.52,34.2 9.72,21.6 20.52,54.72 z M 878.8,539.8 q -33.84,0 -59.4,-29.16 -25.2,-29.16 -39.24,-84.6 l 27.36,-8.64 q 11.16,37.08 23.76,54.72 12.96,17.28 29.16,17.28 18.36,0 18.36,-19.44 0,-20.52 -20.88,-43.2 l 10.8,-18.72 h 80.64 V 384.28 H 766.12 l -23.76,-39.24 v -5.76 h 289.08 l 23.76,39.24 v 5.76 h -48.24 V 568.6 h -6.12 l -51.48,-33.12 v -81.72 h -9 q -8.64,0 -16.56,-0.36 -7.92,-0.36 -14.4,-1.08 6.84,10.8 10.44,21.24 3.6,10.44 3.6,21.24 0,21.6 -11.88,33.48 -11.52,11.52 -32.76,11.52 z m -20.52,65.16 q -27,0 -27,-26.64 0,-25.92 27,-25.92 27.36,0 27.36,25.92 0,26.64 -27.36,26.64 z"
     id="text1"
     class="main"
     style="font-weight:900;font-size:360px;font-family:'Noto Serif Devanagari';letter-spacing:2px;text-anchor:middle;fill:#ffffff"
     aria-label="जैज़" />
  <path
     d="m 639.74978,755.85 q -25.05,-10.05 -35.85,-27.15 -10.8,-17.1 -10.8,-41.4 0,-24.15 10.8,-41.1 10.8,-16.95 35.85,-27 v 9.45 q -9.3,6.15 -14.25,15.45 -4.8,9.15 -6.6,20.25 -1.65,11.1 -1.65,22.95 0,11.85 1.65,23.1 1.8,11.25 6.6,20.55 4.95,9.15 14.25,15.3 z m 40.00006,-46.95 q -3.75,0 -7.65,-1.95 -3.75,-2.1 -7.05,-5.25 -3.15,-3.15 -5.1,-6.75 -1.95,-3.75 -1.95,-7.05 0,-7.5 8.55,-7.5 1.2,0 2.25,0 1.05,0 1.8,0.15 0.3,-1.05 0.3,-3.15 0.15,-2.25 0.15,-4.95 0,-8.4 -0.75,-16.35 h -17.25 l -7.95,-12.9 v -2.1 h 94.8 l 7.95,12.9 v 2.1 h -19.65 v 80.1 h -2.1 l -16.8,-10.65 V 656.1 h -22.35 q 1.35,8.55 2.4,18.3 1.05,9.6 1.05,17.55 0,9 -2.7,13.05 -2.7,3.9 -7.95,3.9 z m 87.24996,27.3 -16.65,-10.65 V 656.1 h -11.85 l -7.95,-12.9 v -2.1 h 50.25 l 7.95,12.9 v 2.1 h -19.65 v 80.1 z m -11.4,-93.45 q -5.55,-6.15 -10.35,-9 -4.8,-2.85 -11.1,-2.85 -2.85,0 -5.7,0.6 -2.85,0.6 -5.7,1.8 l -4.95,-13.65 q 2.55,-0.9 5.4,-1.5 2.85,-0.6 6.15,-0.6 8.4,0 14.7,4.2 6.3,4.2 12.9,12.45 l 0.45,-0.15 q -5.4,-12 -10.65,-17.4 -5.1,-5.4 -13.05,-5.4 -2.85,0 -5.4,0.6 -2.55,0.45 -4.95,1.35 l -5.25,-13.2 q 2.85,-1.05 6.15,-1.65 3.3,-0.75 6.75,-0.75 8.7,0 14.85,4.05 6.15,3.9 11.25,13.8 5.25,9.75 10.95,27.3 z m 70.8001,95.4 q -8.1,-5.85 -15.3,-12.6 -7.05,-6.75 -12.6,-13.65 -5.4,-6.9 -8.55,-13.2 -3,-6.3 -3,-11.25 0,-4.2 2.4,-6.45 2.55,-2.4 7.35,-2.4 5.7,0 12.15,3.45 1.65,-2.55 2.4,-5.7 0.9,-3.15 0.9,-7.05 0,-6.6 -1.8,-13.2 h -31.95 l -7.95,-12.9 v -2.1 h 72.6 l 7.95,12.9 v 2.1 h -24.45 q 1.2,4.65 1.95,9.45 0.9,4.8 0.9,9.6 0,9.6 -5.25,16.35 -5.25,6.75 -15.45,8.55 -1.35,0.3 -2.7,0.6 -1.2,0.15 -2.55,0.3 7.05,7.2 16.5,13.35 9.45,6.15 18.9,10.8 z m 43.75014,-1.95 -16.65,-10.65 V 656.1 h -11.85 l -7.95,-12.9 v -2.1 h 25.5 q -5.4,-10.65 -12.3,-17.1 -6.9,-6.45 -16.05,-6.45 -6.3,0 -9.9,3.3 -3.75,3.15 -3.75,8.85 0,3.75 1.5,7.2 1.5,3.45 3.9,6.15 h -9.75 q -4.95,-4.05 -8.55,-10.05 -3.75,-6.15 -3.75,-12.6 0,-8.85 6.45,-14.25 6.45,-5.55 16.8,-5.55 10.5,0 18.9,5.7 8.4,5.7 14.85,15 6.45,9.15 11.1,19.8 h 15.3 l 7.95,12.9 v 2.1 h -19.65 v 80.1 z m 26.10012,19.65 v -9.6 q 9.3,-6.15 14.1,-15.3 4.95,-9.3 6.6,-20.55 1.8,-11.25 1.8,-23.1 0,-11.85 -1.8,-22.95 -1.65,-11.1 -6.6,-20.25 -4.8,-9.3 -14.1,-15.45 v -9.45 q 25.05,10.05 35.85,27 10.8,16.95 10.8,41.1 0,24.3 -10.8,41.4 -10.8,17.1 -35.85,27.15 z"
     id="text2"
     class="sub"
     style="font-weight:700;font-size:150px;font-family:'Noto Serif Devanagari';letter-spacing:1px;text-anchor:middle;fill:#ffffff"
     aria-label="(गौरी)" />
</svg>
